<svg xmlns:xlink="http://www.w3.org/1999/xlink" xmlns="http://www.w3.org/2000/svg" class="svg css-uwwqev" viewBox="0 0 45 52" width="80"  height="80" ><g fill="none" fill-rule="evenodd"><path d="M4.058 0C1.094 0 0 1.098 0 4.075v35.922c0 .338.013.65.043.94.068.65-.043 1.934 2.285 2.96 1.553.683 7.62 3.208 18.203 7.573 1.024.428 1.313.529 2.081.529.685.013 1.137-.099 2.072-.53 10.59-4.227 16.66-6.752 18.213-7.573 2.327-1.23 2.097-3.561 2.097-3.899V4.075C44.994 1.098 44.13 0 41.166 0H4.058z" fill="#3A3A3A"></path><path stroke="#FFFFFF" stroke-width="2px" stroke-linecap="round" stroke-linejoin="round" d="M14 18l4.91 2.545-2.455 4M25.544 28.705c-1.056-.131-1.806-.14-2.25-.025-.444.115-1.209.514-2.294 1.197M29.09 21.727L25 19.5l2.045-3.5" fill="none"></path></g></svg>