<svg xmlns:xlink="http://www.w3.org/1999/xlink" xmlns="http://www.w3.org/2000/svg" class="svg css-uwwqev" viewBox="0 0 105 43" width="20"  height="20" ><title>Mac OS</title><g><path d="M40.152 39.6706H34.5029V10.4623H34.3002L22.3433 39.3667H17.7834L5.80114 10.4623H5.59848V39.6706H0V0H7.11843L19.962 31.3109H20.19L32.9829 0H40.1267V39.6706H40.152Z" fill="#F5F5F5"></path><path d="M46.2617 31.4377C46.2617 26.3459 50.1376 23.4327 57.2814 23.002L64.9571 22.5207V20.3421C64.9571 17.1249 62.8292 15.377 59.08 15.377C55.9641 15.377 53.7095 16.9729 53.2535 19.4048H47.6803C47.8577 14.2623 52.6962 10.5385 59.232 10.5385C66.2744 10.5385 70.8596 14.2117 70.8596 19.9368V39.6708H65.1598V34.9083H65.0078C63.3865 38.0242 59.8146 39.9748 55.9387 39.9748C50.2643 39.9748 46.2617 36.5549 46.2617 31.4377ZM64.9571 28.9045V26.6752L58.1173 27.1312C54.2668 27.3845 52.2655 28.8032 52.2655 31.3111C52.2655 33.743 54.3681 35.3136 57.636 35.3136C61.7905 35.2629 64.9571 32.603 64.9571 28.9045Z" fill="#F5F5F5"></path><path d="M96.5139 20.798C95.9819 17.7328 93.626 15.4528 89.7501 15.4528C85.2156 15.4528 82.201 19.278 82.201 25.2312C82.201 31.387 85.2409 35.0602 89.8008 35.0602C93.4486 35.0602 95.8806 33.2362 96.5645 29.8923H102.264C101.631 35.9975 96.7672 40 89.7754 40C81.5424 40 76.1719 34.4015 76.1719 25.2312C76.1719 16.2888 81.5677 10.4877 89.7248 10.4877C97.1218 10.4877 101.707 15.1235 102.214 20.7727H96.5139V20.798Z" fill="#F5F5F5"></path></g></svg>